<svg width="745" height="650" viewBox="0 0 745 650" fill="none" xmlns="http://www.w3.org/2000/svg">
<path d="M156.203 31.2627L149.686 32.3345C147.365 32.3345 145.044 33.2277 142.544 33.7636C137.545 34.8355 132.188 36.086 126.564 37.7831C123.707 38.5869 120.85 39.5695 117.636 40.552C114.422 41.5345 111.833 42.6063 108.709 43.8568C102.572 46.4496 96.6086 49.4331 90.8537 52.7888C85.1404 56.1477 79.6531 59.8774 74.4271 63.9538C69.0541 68.245 64.0655 72.997 59.5181 78.1557C55.1229 83.1029 51.207 88.4564 47.8231 94.144C44.5693 99.4079 41.7622 104.935 39.4313 110.668C37.3563 115.765 35.5972 120.986 34.164 126.299C32.8249 131.212 31.9322 135.857 31.218 139.965C30.5038 144.074 30.0574 147.647 29.7896 150.594C29.5217 153.542 29.7896 155.864 29.2539 157.472V159.884L29.7003 157.472C29.7003 155.864 30.2359 153.542 30.7716 150.684C32.1601 142.67 34.099 134.761 36.5745 127.014C38.2629 121.85 40.2299 116.781 42.4666 111.829C45.0745 106.36 48.0574 101.077 51.3941 96.0198C58.2502 85.0553 66.8785 75.3059 76.9268 67.1694C82.1223 63.0244 87.6123 59.263 93.3534 55.915C98.9151 52.5993 104.669 49.6167 110.583 46.983C113.44 45.6432 116.297 44.5714 119.065 43.4102L127.456 40.4627C132.902 38.6763 138.169 37.0685 143.08 35.7287L150.043 34.0316L156.471 32.5132L166.916 30.3695L175.843 28.7617L166.916 29.5656L156.203 31.2627Z" fill="black"/>
<path d="M112.995 185.249L125.047 187.036C132.992 188.376 140.759 190.073 148.258 191.859C161.786 194.912 174.932 199.466 187.45 205.436C192.429 208 197.178 210.989 201.645 214.368C205.11 217.03 208.309 220.021 211.197 223.3C213.056 225.373 214.757 227.582 216.286 229.909L217.804 232.5L216.732 229.731C215.582 227.127 214.177 224.643 212.536 222.317C209.939 218.663 206.945 215.307 203.609 212.313C199.271 208.508 194.577 205.128 189.593 202.22C186.825 200.612 183.879 199.094 180.665 197.576C177.524 196.015 174.306 194.614 171.024 193.377C163.972 190.553 156.721 188.255 149.33 186.5C141.537 184.485 133.639 182.905 125.672 181.766C121.565 181.051 117.369 180.605 113.352 180.247C109.282 179.458 105.168 178.921 101.032 178.64C92.4375 178.472 83.8908 179.958 75.8564 183.016C68.0311 186 61.068 190.88 55.591 197.218C50.5684 203.047 46.637 209.734 43.9853 216.958C41.5739 223.302 39.8674 229.891 38.8966 236.608C37.9985 242.253 37.4914 247.954 37.3789 253.669C37.3789 258.79 37.3789 263.166 37.3789 266.799C37.9146 274.034 38.6288 278.142 38.6288 278.142C38.6288 278.142 38.1824 274.034 38.1824 266.709C38.1185 256.757 39.0456 246.823 40.9499 237.055C42.2897 230.605 44.2325 224.295 46.7528 218.208C49.5273 211.61 53.4576 205.56 58.3585 200.344C63.6014 194.563 70.1966 190.174 77.5527 187.572C85.0714 184.984 92.9948 183.774 100.943 183.999C104.983 184.149 109.009 184.567 112.995 185.249Z" fill="black"/>
<path d="M585.26 19.2931C551.118 10.6414 516.109 5.87724 480.898 5.09125C408.942 5.09125 388.498 34.6562 382.695 52.2523C381.808 54.8332 381.18 57.4962 380.82 60.2018C350.824 21.2582 296.009 0 223.964 0C206.805 0.0527608 189.663 1.1265 172.631 3.21552C141.838 6.27839 111.843 14.8397 84.0703 28.4931C61.2814 39.9502 41.798 57.0453 27.4699 78.1551C-7.16879 129.961 -8.95428 205.436 21.5778 315.3C38.54 376.038 64.2512 415.785 89.2482 454.282C112.906 490.814 135.314 525.738 147.188 575.936C153.973 604.34 165.668 633.369 201.913 633.369C214.208 632.789 226.411 630.964 238.338 627.92L244.497 626.67C278.652 620.504 312.243 611.542 344.932 599.874C376.077 614.702 408.31 627.123 441.349 637.031L447.509 638.996C461.486 644.589 476.24 647.993 491.254 649.089C523.75 649.089 537.677 622.293 547.051 595.497C564.906 544.853 591.688 511.894 620.524 476.88C650.431 440.17 681.409 402.208 705.603 341.649C722.639 302.024 734.839 260.488 741.938 217.941C747.741 175.425 743.188 140.322 727.832 110.757C705.246 66.3648 658.376 36.3533 585.26 19.2931ZM201.824 612.915C184.415 612.915 175.042 603.983 167.096 571.202C141.742 463.929 73.7144 426.057 41.3968 309.762C37.8258 297.257 34.7012 284.842 31.9337 272.694C31.9337 269.3 31.9337 265.013 31.9337 260.011C32.0839 251.517 32.7997 243.043 34.0763 234.644C35.5566 224.111 38.5641 213.85 43.0038 204.186C47.6668 193.482 55.6071 184.537 65.6796 178.64C71.2335 175.645 77.2822 173.679 83.5346 172.834C90.439 171.933 97.4313 171.933 104.336 172.834C120.088 174.723 135.689 177.707 151.027 181.766C166.741 185.554 181.96 191.159 196.378 198.469C203.199 202.147 209.604 206.549 215.483 211.599C221.062 216.312 225.696 222.041 229.142 228.481C232.305 234.437 233.845 241.122 233.606 247.863C233.336 253.156 232.127 258.358 230.035 263.226L229.589 263.852L227.446 266.71C225.482 269.122 222.625 272.605 218.518 276.446C216.644 278.411 214.501 280.465 212.269 282.52C209.916 284.738 207.442 286.826 204.859 288.772C202.137 290.911 199.306 292.908 196.378 294.756C193.5 296.674 190.52 298.433 187.451 300.026C184.275 301.645 180.995 303.048 177.63 304.224C176.024 304.85 174.327 305.296 172.72 305.832L167.721 307.083L162.811 307.976L158.079 308.512H153.526H149.241C146.474 308.512 143.885 308.512 141.653 308.512H135.671H130.315C130.315 308.512 131.922 309.584 134.957 311.191C136.801 312.157 138.71 312.993 140.671 313.692C141.831 314.228 143.081 314.496 144.331 314.943C145.581 315.389 147.009 315.747 148.527 316.015L153.169 316.908H158.169C159.865 316.908 161.65 316.908 163.525 316.908H169.06H172.274H171.024C169.783 317.506 168.5 318.013 167.185 318.426C157.189 321.406 146.569 321.591 136.475 318.962C128.12 316.934 120.03 313.937 112.37 310.03C107.232 307.52 102.226 304.748 97.3723 301.723C93.9798 299.669 92.1943 298.419 92.1943 298.419C93.422 300.091 94.7331 301.701 96.1224 303.242C100.059 307.645 104.359 311.709 108.978 315.389C116.277 321.346 124.473 326.109 133.261 329.502C137.009 330.922 140.858 332.057 144.777 332.896C144.777 333.611 144.777 334.504 144.777 335.397C145.313 340.846 145.849 348.348 145.849 355.851C145.849 359.603 145.849 363.354 145.402 366.838C145.499 368.533 145.499 370.233 145.402 371.929C145.402 373.537 145.402 375.144 144.867 376.574L144.242 380.414C144.242 381.546 144.063 382.528 143.706 383.362L143.17 385.952L144.599 383.719L146.206 381.129C146.831 380.146 147.456 378.896 148.259 377.645C149.062 376.395 149.687 374.966 150.402 373.447L152.812 368.713C154.33 365.319 155.847 361.657 157.365 357.995C159.996 351.154 162.261 344.177 164.15 337.094C164.15 335.754 164.864 334.593 165.132 333.521C167.245 333.269 169.334 332.85 171.381 332.271H172.363C172.363 334.682 172.988 337.541 173.256 340.667C173.524 343.793 173.702 346.115 173.881 349.599C174.059 353.082 173.881 355.762 173.881 359.067C173.881 362.372 173.881 365.855 173.881 369.339C173.881 372.822 173.881 376.395 173.345 379.878C172.81 383.362 172.72 387.024 172.453 390.508C172.185 393.991 171.471 397.385 171.113 400.779C170.756 404.174 169.953 407.3 169.417 410.337C168.882 413.373 168.167 416.232 167.542 419.269C166.918 422.305 166.382 424.271 165.757 426.414L164.15 431.952L162.722 436.686L165.043 432.309L167.721 427.129C168.792 425.164 169.685 422.841 170.846 420.34C172.006 417.84 173.256 415.16 174.417 412.212C175.577 409.265 176.916 406.139 177.988 403.28C179.059 400.422 180.398 396.671 181.38 393.098C182.362 389.525 183.612 386.131 184.505 382.469C185.397 378.807 186.379 375.234 187.094 371.661C187.808 368.088 188.611 364.515 189.236 361.121C189.861 357.727 190.397 354.244 190.843 351.028C191.29 347.813 191.736 344.776 191.915 342.096C192.539 336.38 192.807 331.646 192.897 328.251C192.897 326.554 192.897 325.215 192.897 324.143V323.696C198.342 320.481 203.877 316.908 209.412 312.888C212.537 310.655 215.572 308.244 218.34 305.743L223.161 303.688C226.732 303.688 230.571 302.706 234.677 302.17C238.784 301.634 243.069 300.741 247.533 300.026C251.997 299.312 256.46 298.151 261.192 297.168L275.208 293.595C279.85 292.255 284.136 291.005 289.046 289.576C293.956 288.147 297.973 286.807 302.348 285.288L306.276 283.949C303.24 285.824 300.116 287.968 296.723 289.754C293.331 291.541 290.028 293.595 286.368 295.292C282.707 296.989 279.315 298.776 275.654 300.294C271.994 301.813 268.512 303.42 265.031 304.671C261.549 305.921 258.067 307.351 254.853 308.422L245.926 311.459L241.819 312.799L237.98 313.782L231.82 315.479L226.375 316.997H231.999H238.427H242.444H246.819L256.728 316.283L267.798 314.407C271.637 313.96 275.565 313.246 279.672 312.531C283.778 311.817 287.796 311.013 291.903 310.03C296.009 309.048 300.116 307.976 304.133 306.904C308.151 305.832 312.079 304.403 315.918 303.152L321.363 301.009L324.22 299.848V300.562C323.327 312.084 314.132 324.053 319.667 336.29C328.059 355.315 314.311 378.36 321.095 400.511C325.024 413.195 326.631 419.626 327.613 422.484L322.702 425.342L316.007 429.183L308.686 433.113C303.687 435.882 298.241 438.383 292.706 441.241L283.779 445.261C280.832 446.601 277.886 448.03 274.851 449.28L262.531 454.461C260.835 437.758 258.335 427.665 239.944 434.096C223.786 439.455 232.713 454.997 237.088 463.661L228.16 466.519L219.233 469.109L210.305 471.61L201.378 473.575L193.164 475.362C190.575 475.987 187.986 476.344 185.487 476.791L171.917 479.024L161.293 480.096L152.366 480.989H172.363L186.112 480.006C188.701 480.006 191.379 480.006 194.057 479.381L202.449 478.309L211.376 477.148L220.304 475.54L229.856 473.843L241.016 471.878L250.747 500.193L245.926 500.818L236.998 501.622C231.106 502.336 225.214 502.604 219.143 503.051L202.003 503.855C196.468 503.855 191.111 503.855 186.022 503.855C180.934 503.855 176.024 503.855 171.56 503.855H159.418H149.955H141.742C141.742 503.855 144.599 504.748 149.777 505.82C152.366 506.445 155.49 507.07 158.704 507.696C161.918 508.321 166.382 508.946 170.935 509.482L177.898 510.286L185.397 510.911C190.575 510.911 196.021 511.536 201.735 511.715H210.662C213.608 511.715 216.554 511.715 219.59 511.715C225.482 511.715 231.553 511.179 237.445 510.554L246.372 509.571C249.408 509.571 252.354 508.678 255.3 508.231C258.246 507.785 261.103 507.428 264.227 506.802L272.708 505.016C275.476 504.391 278.154 503.855 280.832 503.14L288.51 500.907L295.741 498.764C298.063 498.049 300.294 497.066 302.348 496.352L306.097 494.923C301.225 507.579 298.043 520.824 296.634 534.313C296.412 537.495 296.412 540.688 296.634 543.87C291.456 546.103 286.189 548.515 280.922 550.926C275.654 553.338 269.316 556.286 263.692 558.965C258.067 561.645 252.443 564.324 247.086 567.004C241.73 569.684 236.552 572.274 231.642 574.775C226.732 577.276 222.714 579.866 218.072 582.099C213.43 584.332 210.127 586.655 206.734 588.53C203.342 590.406 200.485 592.282 197.807 593.8L190.397 598.445L198.253 594.515C200.663 593.264 203.699 591.835 207.181 590.227C210.662 588.62 214.59 586.833 219.054 584.957L233.249 579.062C238.338 577.187 243.605 574.954 249.229 572.899C254.853 570.845 259.585 569.058 265.031 567.183L268.512 601.124L233.695 608.627C223.226 611.034 212.557 612.469 201.824 612.915ZM268.423 497.602L264.138 465.804C269.405 464.375 274.672 462.678 279.761 461.07C283.064 460.088 286.189 458.927 289.314 457.766L298.241 454.55C304.133 452.138 310.025 450.084 315.382 447.672L323.327 444.368L325.738 443.296L319.846 458.302C315.293 469.645 310.918 479.917 307.793 489.296L301.009 490.993C298.866 491.529 296.634 492.243 294.313 492.69L286.992 494.119L279.315 495.727L271.28 497.066L268.423 497.602ZM296.545 593.621L283.779 560.037L284.85 559.591L298.777 555.035C302.358 567.784 310.367 578.837 321.363 586.208C312.971 588.977 304.847 591.388 296.545 593.621ZM341.629 573.882C333.781 570.158 327.132 564.31 322.435 557C325.024 558.429 327.702 559.858 330.648 561.288C335.112 563.61 339.575 565.932 345.11 568.433C350.645 570.934 355.734 573.435 361.448 575.847C367.161 578.258 373.054 580.849 379.303 583.171L388.23 586.744L397.158 590.049C400.282 591.121 403.318 592.282 406.532 593.264L415.459 596.122C421.619 598.177 427.779 599.695 433.761 601.392C439.742 603.089 445.545 604.34 451.08 605.59L459.025 607.377L466.614 608.806L479.826 611.128L490.093 612.468L499.021 613.629L490.093 611.575L480.094 609.163L467.239 605.59L459.918 603.447L452.151 600.856C446.884 599.07 441.26 597.284 435.635 594.961C430.011 592.639 424.03 590.674 417.78 587.994L408.853 584.243C405.907 582.992 403.05 581.563 399.925 580.223L390.998 576.025L382.07 571.649C376.357 568.88 371 565.754 365.644 562.717C360.287 559.68 355.288 556.732 350.556 553.785C345.825 550.837 341.629 548.247 337.433 545.567C333.237 542.888 329.666 540.476 326.452 538.243C326.452 535.295 327.523 531.723 328.416 527.525C329.041 524.845 329.666 521.808 330.469 518.593C331.273 515.377 332.166 512.162 333.148 508.767C334.13 505.373 335.29 501.8 336.361 498.228C337.433 494.655 338.861 491.082 340.111 487.42L344.218 476.701C345.646 473.188 347.075 469.794 348.503 466.519L352.877 456.962C354.216 453.925 355.734 451.245 356.984 448.566C358.234 445.886 359.394 443.564 360.555 441.509L363.501 436.15L366.09 431.416L362.698 435.614L358.77 440.348C357.252 442.135 355.645 444.368 353.859 446.69C352.074 449.012 350.11 451.513 348.146 454.193C346.182 456.872 344.128 459.909 342.075 463.125L335.737 472.682L334.844 474.111C338.415 465.179 342.343 455.265 346.539 444.546C351.538 431.684 354.752 423.288 356.716 417.036L366.358 421.502L379.392 427.397L394.837 434.185L412.156 441.509C418.227 443.921 424.387 446.601 430.725 449.102L450.009 456.694C462.953 461.696 475.898 466.519 488.129 470.896C500.36 475.272 511.787 479.202 521.696 482.507C541.337 489.028 554.639 492.958 554.639 492.958C554.639 492.958 541.783 487.777 522.857 479.381C513.394 475.183 502.413 470.449 490.718 464.643C479.023 458.837 466.614 453.121 454.294 446.779C448.134 443.742 441.974 440.527 435.992 437.401C430.011 434.274 424.119 431.148 418.137 428.469L415.638 427.129C385.565 407.768 363.621 378.059 353.949 343.614C349.306 320.391 342.075 276.892 348.146 180.963C348.146 179.98 348.146 178.819 348.771 177.479C349.396 176.139 348.771 175.425 349.396 174.264C350.021 173.102 349.931 171.941 350.288 170.78L351.36 166.939L352.788 162.92C353.77 160.24 355.02 157.382 356.359 154.434C357.698 151.487 359.394 148.629 361.18 145.502C363.043 142.569 365.101 139.764 367.34 137.106C369.536 134.463 371.923 131.985 374.482 129.693C377.004 127.457 379.723 125.454 382.606 123.708C385.43 122.03 388.422 120.652 391.533 119.6C394.259 118.669 397.07 118.011 399.925 117.635C402.42 117.416 404.929 117.416 407.424 117.635C409.656 117.635 411.62 118.171 413.227 118.528C414.834 118.885 416.084 119.332 416.977 119.6H418.316L417.155 118.796C416.352 118.796 415.281 117.545 413.763 116.831C411.919 115.865 410.01 115.029 408.049 114.33C402.297 112.443 396.234 111.685 390.194 112.097C386.446 112.415 382.738 113.103 379.124 114.151C376.377 114.935 373.692 115.921 371.089 117.099C374.281 113.855 377.993 111.168 382.07 109.149L385.284 107.899C390.229 106.197 395.35 105.059 400.55 104.505H403.05C408.152 104.58 413.165 105.847 417.691 108.205C422.217 110.562 426.13 113.944 429.118 118.081C432.14 122.139 434.602 126.586 436.439 131.301C438.491 136.661 440.074 142.19 441.17 147.825C442.294 153.732 443.099 159.695 443.581 165.689C444.664 177.642 443.912 189.691 441.349 201.417C440.188 207.133 438.76 212.582 437.242 217.762C435.725 222.943 434.028 227.766 432.332 232.232C430.636 236.698 429.029 240.628 427.422 244.201C425.815 247.774 424.476 250.722 423.226 253.133C421.976 255.545 420.994 257.599 420.28 258.939L419.298 260.904L420.459 259.028L423.94 253.58C425.369 251.168 427.154 248.31 429.029 244.648C430.904 240.986 432.957 237.324 435.01 233.036C437.064 228.749 439.296 224.104 441.349 218.834C443.402 213.564 445.366 208.295 447.152 202.489C448.958 196.625 450.419 190.66 451.526 184.625C451.526 183.017 451.526 181.32 452.151 179.801V177.39C452.151 177.39 452.151 176.765 452.151 176.139V175.961C452.151 172.745 452.687 169.44 452.776 166.225C453.133 159.709 453.133 153.179 452.776 146.664C452.301 140.177 451.225 133.748 449.562 127.46C447.995 121.183 445.529 115.167 442.242 109.596C439.199 104.295 435.204 99.601 430.457 95.7512C426.349 92.401 421.74 89.7184 416.798 87.8017C418.06 87.9301 419.313 88.1389 420.548 88.4269C423.343 88.9887 426.067 89.8574 428.672 91.0172C431.595 92.4305 434.35 94.1683 436.885 96.1978C439.612 98.5024 442.067 101.109 444.206 103.969C445.277 105.487 446.259 107.184 447.33 108.792C448.402 110.4 449.205 112.186 449.919 114.062C450.634 115.938 451.616 117.724 452.24 119.689L453.222 122.547L454.026 125.495C454.562 127.46 455.097 129.425 455.454 131.39C455.811 133.355 456.347 135.231 456.615 137.196L457.418 143.002L457.954 148.539C457.954 150.326 457.954 152.112 457.954 153.899V158.811C457.954 162.027 457.954 164.974 457.954 167.743C457.954 170.512 457.954 172.656 457.954 174.532V180.427L459.115 174.621C459.115 172.834 460.007 170.601 460.454 167.922C460.9 165.242 461.347 162.384 461.793 158.99L462.329 153.988C462.6 152.182 462.779 150.363 462.864 148.539C462.864 146.664 462.864 144.699 462.864 142.734V136.66C462.864 134.605 462.864 132.462 462.864 130.318C462.819 128.165 462.64 126.018 462.329 123.887C462.329 122.726 462.329 121.654 461.882 120.582L461.347 117.188C460.948 114.954 460.411 112.746 459.74 110.578C459.203 108.292 458.486 106.052 457.597 103.879C456.757 101.687 455.804 99.5407 454.74 97.4482C452.603 93.2726 449.965 89.3732 446.884 85.8366C443.812 82.4783 440.368 79.4816 436.617 76.9046C433.227 74.7531 429.64 72.9287 425.904 71.4561C422.996 70.3511 420.013 69.4557 416.977 68.7765C417.891 66.8337 419.029 65.005 420.369 63.328C423.692 59.1289 427.82 55.6366 432.511 53.0561C435.376 51.4585 438.361 50.0848 441.438 48.9474C444.654 47.7327 447.932 46.6892 451.258 45.8212C458.437 44.0417 465.755 42.8764 473.131 42.3377C476.97 42.3377 480.987 42.3377 484.915 41.7125H496.967C505.002 41.7125 513.126 42.5164 521.071 43.4096L527.053 44.0348L532.945 44.8387L544.462 46.5358L555.621 48.5008L566.245 50.4659C573.119 51.9843 579.725 53.1455 585.707 54.6639L602.133 58.594L614.721 61.8988L624.898 64.8464L614.275 60.9163L602.044 56.361L586.332 50.9125C580.261 48.8581 574.012 46.9824 567.227 44.6601C563.834 43.5882 560.353 42.6057 556.692 41.6232L545.711 38.497L534.106 35.728L528.213 34.2989L522.232 33.1378C514.197 31.3514 505.895 30.1009 497.503 28.9397L484.915 27.5999C480.63 27.5999 475.988 27.064 472.238 26.9747C468.489 26.8854 462.239 26.9747 457.24 26.9747C465.116 26.4741 473.015 26.4144 480.898 26.796C514.407 27.4207 547.739 31.8252 580.261 39.9261C751.669 80.3881 744.795 188.555 686.587 333.879C640.164 449.995 565.888 481.078 527.678 588.62C517.143 618.185 507.145 627.742 491.968 627.742C479.106 626.58 466.478 623.572 454.472 618.81C408.764 603.536 380.106 594.425 341.629 573.882ZM374.928 89.3201C373.647 89.7801 372.395 90.317 371.179 90.9279C367.106 84.4284 362.282 78.4323 356.805 73.0639C350.134 66.9202 342.763 61.5839 334.844 57.1649C327.522 52.8808 319.846 49.235 311.9 46.2678C304.853 43.6762 297.671 41.4698 290.385 39.6581C286.992 38.9436 283.779 38.1397 280.743 37.6038C277.708 37.0678 274.672 36.4426 271.816 36.0853L264.049 35.1028L257.442 34.4776C253.425 34.4776 250.3 34.4776 248.515 33.9416H245.212L248.426 34.6562C250.479 35.1921 253.604 35.728 257.353 36.7999L263.692 38.3183L271.191 40.3727C276.547 41.8018 282.499 43.5882 289.046 45.7319C295.384 47.9649 302.169 50.5552 309.133 53.7707C316.199 57.1386 322.977 61.082 329.398 65.561C336.296 70.2856 342.592 75.8346 348.146 82.0852C352.424 87.0463 356.137 92.4687 359.216 98.2521C350.634 104.024 343.037 111.142 336.719 119.332C313.329 149.433 309.936 187.126 312.704 225.712L310.472 227.141C308.865 227.945 307.258 228.927 305.472 229.642C302.072 231.257 298.55 232.601 294.938 233.661C291.391 234.735 287.784 235.6 284.136 236.252C280.654 236.966 277.172 237.324 273.869 237.681C270.566 238.038 267.352 238.217 264.406 238.306C259.049 238.306 254.496 238.306 251.282 238.306C250.428 232.088 248.559 226.053 245.747 220.442L244.944 218.924C244.944 218.298 244.944 217.584 244.497 216.78C244.225 215.751 243.897 214.737 243.515 213.743C242.623 211.069 241.519 208.47 240.212 205.972C238.503 202.855 236.563 199.869 234.409 197.04C233.874 196.236 233.249 195.522 232.624 194.718L230.66 192.396L226.285 187.572C223.023 184.382 219.564 181.399 215.929 178.64C213.965 177.3 212.18 175.871 210.127 174.621L204.056 170.959L200.931 169.172L197.628 167.654L191.111 164.617L187.451 163.456L184.148 162.205L177.452 159.794L174.149 158.543L170.846 157.561L164.329 155.685L158.079 153.899L151.919 152.469L140.76 150.236C139.064 150.236 137.367 149.701 135.761 149.522H131.207L123.798 148.807L117.37 148.361L123.53 150.415C125.405 151.13 127.815 151.844 130.493 152.648C133.172 153.452 136.385 154.256 139.421 155.417C142.456 156.578 146.295 157.65 150.045 158.9L155.847 160.776L161.74 163.009L167.9 165.421C168.97 165.76 170.015 166.178 171.024 166.671C165.846 164.974 160.668 163.366 155.49 161.937C139.43 157.344 123.046 153.97 106.478 151.844C97.7688 150.919 88.9761 151.129 80.3207 152.469C71.7156 153.785 63.4068 156.596 55.7701 160.776C52.0372 162.814 48.5094 165.207 45.2357 167.922C42.0052 170.633 39.018 173.622 36.3081 176.854C31.4612 182.662 27.4083 189.09 24.256 195.968C23.0481 198.53 21.9753 201.154 21.0421 203.829C14.6143 108.703 49.9672 38.7649 175.131 23.5805C191.335 21.6083 207.641 20.5943 223.964 20.5436C303.508 20.5436 354.841 48.0542 374.928 89.3201Z" fill="black"/>
<path d="M521.072 494.834C524.018 495.37 526.696 495.727 528.839 495.995L533.838 496.531H535.623L529.196 494.209L512.501 488.135L461.972 469.378L435.189 459.553L422.333 455.533L411.085 451.692C404.121 449.281 398.319 447.405 394.123 446.155L387.605 444.189C387.605 444.189 389.659 445.529 393.498 447.673L400.283 451.514C402.961 452.943 405.907 454.551 409.21 456.158L420.012 461.428L432.154 466.966C436.35 468.842 441.081 470.628 445.277 472.415C449.473 474.201 454.205 475.987 459.025 477.774L473.131 482.329C477.684 483.937 482.058 485.187 486.701 486.617C491.343 488.046 495.628 489.028 499.646 490.1C503.663 491.172 507.68 492.154 511.341 492.869C515.001 493.583 517.768 494.298 521.072 494.834Z" fill="black"/>
<path d="M610.793 444.367C614.007 440.705 617.846 436.15 622.22 430.88C626.594 425.61 631.148 419.536 636.147 413.016C641.146 406.496 646.324 398.725 651.324 390.418C656.766 381.757 661.743 372.813 666.233 363.622C671.053 354.69 675.16 344.239 679.624 333.968C684.088 323.696 687.748 313.245 691.497 302.616C695.247 291.987 698.818 281.447 702.032 270.908C705.246 260.368 708.013 249.739 710.334 239.467C712.571 229.558 714.299 219.541 715.512 209.455C716.637 200.419 717.174 191.319 717.119 182.213C717.08 174.528 716.483 166.856 715.334 159.257C714.42 153.399 713.107 147.609 711.406 141.929C709.977 137.195 708.549 133.623 707.567 131.211L705.96 127.549L707.21 131.3C708.43 134.871 709.443 138.51 710.245 142.197C711.455 147.92 712.349 153.705 712.923 159.525C713.476 167.048 713.476 174.601 712.923 182.123C712.541 191.107 711.587 200.057 710.067 208.919C708.549 217.851 706.406 228.123 703.817 238.216C701.228 248.31 698.193 258.492 694.89 268.853C691.587 279.214 687.837 289.754 683.909 300.115C679.981 310.476 675.874 320.838 671.678 331.02C667.482 341.203 662.751 350.76 658.555 360.138L655.073 367.016L651.681 373.358C649.27 377.734 647.038 382.29 644.628 386.131C639.986 394.437 635.701 402.119 630.88 409.175C621.952 423.288 614.185 434.899 608.829 443.027C606.061 447.047 604.008 450.262 602.49 452.495L600.348 455.8L603.026 452.853C604.99 450.977 607.579 448.119 610.793 444.367Z" fill="black"/>
<path d="M339.217 529.044C339.217 529.044 339.752 527.883 340.556 525.739C341.359 523.595 341.538 523.417 341.984 521.987L343.948 517.075C344.573 515.288 345.377 513.413 346.091 511.358L348.68 504.927L349.93 501.622L351.358 498.139L354.215 491.172C355.108 488.85 356.179 486.527 357.072 484.205L359.929 477.506C361.714 473.04 363.5 468.574 364.928 465.448C366.356 462.322 367.606 458.927 368.41 456.516C369.213 454.104 369.749 453.211 369.749 453.211L367.338 455.891C365.91 457.677 363.857 460.178 361.714 463.393C359.572 466.609 357.161 470.539 354.84 474.737C353.679 476.881 352.519 479.114 351.447 481.436C350.376 483.758 349.305 486.081 348.323 488.492C347.341 490.904 346.359 493.316 345.555 495.727C344.752 498.139 343.948 500.551 343.323 502.873C342.699 505.195 342.609 505.195 342.341 506.356L341.538 509.661C341.538 511.805 340.645 513.949 340.377 515.824C340.11 517.7 339.842 519.576 339.663 521.094C339.588 522.463 339.588 523.834 339.663 525.203C339.217 527.793 339.217 529.044 339.217 529.044Z" fill="black"/>
</svg>
