<svg width="594" height="669" viewBox="0 0 594 669" fill="none" xmlns="http://www.w3.org/2000/svg">
<g clip-path="url(#clip0_1229_10)">
<path d="M296.87 668.78C133.18 668.78 0 535.61 0 371.91C0 208.21 133.18 75 296.87 75C460.56 75 593.74 208.21 593.74 371.91C593.74 535.61 460.57 668.78 296.87 668.78ZM296.87 107.04C150.82 107 32 225.86 32 371.91C32 517.96 150.82 636.78 296.87 636.78C442.92 636.78 561.74 518 561.74 371.91C561.74 225.82 442.92 107 296.87 107V107.04Z" fill="black"/>
<path d="M520.84 371.91C520.853 411.234 510.508 449.868 490.847 483.924C471.186 517.981 442.901 546.258 408.84 565.91L296.84 372.36V148C326.26 147.986 355.395 153.77 382.578 165.022C409.761 176.274 434.461 192.773 455.264 213.576C476.067 234.379 492.566 259.078 503.818 286.262C515.07 313.445 520.854 342.58 520.84 372V371.91Z" fill="black"/>
<path d="M320.92 29.7793H272.82V94.6793H320.92V29.7793Z" fill="black"/>
<path d="M422.864 68.5013L418.469 76.102C415.95 80.4574 417.439 86.0301 421.795 88.5488L479.829 122.109C484.185 124.628 489.758 123.139 492.276 118.783L496.672 111.183C499.19 106.827 497.701 101.255 493.346 98.7361L435.311 65.1755C430.955 62.6568 425.383 64.1458 422.864 68.5013Z" fill="black"/>
<path d="M453.253 75.5584L431.201 113.691L453.345 126.497L475.397 88.3638L453.253 75.5584Z" fill="black"/>
<path d="M364.569 0H229.169C218.969 0 210.699 8.2693 210.699 18.47V43.76C210.699 53.9607 218.969 62.23 229.169 62.23H364.569C374.77 62.23 383.039 53.9607 383.039 43.76V18.47C383.039 8.2693 374.77 0 364.569 0Z" fill="black"/>
</g>
<defs>
<clipPath id="clip0_1229_10">
<rect width="593.74" height="668.78" fill="white"/>
</clipPath>
</defs>
</svg>
